<svg xmlns="http://www.w3.org/2000/svg" width="40" height="46" viewBox="50 0 560 650" fill="none">
<style>

   <![CDATA[
        


@-webkit-keyframes animate-svg-fill-1 {
  0% {
    fill: transparent;
  }

  100% {
    fill: rgb(232, 25, 50);
  }
}

@keyframes animate-svg-fill-1 {
  0% {
    fill: transparent;
  }

  100% {
    fill: rgb(232, 25, 50);
  }
}

.svg-elem-1 {
  -webkit-animation: animate-svg-fill-1 0.7s linear infinite normal 0.8s forwards;
          animation: animate-svg-fill-1 0.7s linear infinite normal 0.8s forwards;
}

@-webkit-keyframes animate-svg-fill-2 {
  0% {
    fill: transparent;
  }

  100% {
    fill: rgb(232, 25, 50);
  }
}

@keyframes animate-svg-fill-2 {
  0% {
    fill: transparent;
  }

  100% {
    fill: rgb(232, 25, 50);
  }
}

.svg-elem-2 {
  -webkit-animation: animate-svg-fill-2 0.7s linear infinite normal 0.9s forwards;
          animation: animate-svg-fill-2 0.7s linear infinite normal 0.9s forwards;
}

@-webkit-keyframes animate-svg-fill-3 {
  0% {
    fill: transparent;
  }

  100% {
    fill: rgb(232, 25, 50);
  }
}

@keyframes animate-svg-fill-3 {
  0% {
    fill: transparent;
  }

  100% {
    fill: rgb(232, 25, 50);
  }
}

.svg-elem-3 {
  -webkit-animation: animate-svg-fill-3 0.7s linear infinite normal 1s forwards;
          animation: animate-svg-fill-3 0.7s linear infinite normal 1s forwards;
}

@-webkit-keyframes animate-svg-fill-4 {
  0% {
    fill: transparent;
  }

  100% {
    fill: rgb(232, 25, 50);
  }
}

@keyframes animate-svg-fill-4 {
  0% {
    fill: transparent;
  }

  100% {
    fill: rgb(232, 25, 50);
  }
}

.svg-elem-4 {
  -webkit-animation: animate-svg-fill-4 0.7s linear infinite normal 1.1s forwards;
          animation: animate-svg-fill-4 0.7s linear infinite normal 1.1s forwards;
}

@-webkit-keyframes animate-svg-fill-5 {
  0% {
    fill: transparent;
  }

  100% {
    fill: rgb(232, 25, 50);
  }
}

@keyframes animate-svg-fill-5 {
  0% {
    fill: transparent;
  }

  100% {
    fill: rgb(232, 25, 50);
  }
}

.svg-elem-5 {
  -webkit-animation: animate-svg-fill-5 0.7s linear infinite normal 1.2000000000000002s forwards;
          animation: animate-svg-fill-5 0.7s linear infinite normal 1.2000000000000002s forwards;
}

@-webkit-keyframes animate-svg-fill-6 {
  0% {
    fill: transparent;
  }

  100% {
    fill: rgb(232, 25, 50);
  }
}

@keyframes animate-svg-fill-6 {
  0% {
    fill: transparent;
  }

  100% {
    fill: rgb(232, 25, 50);
  }
}

.svg-elem-6 {
  -webkit-animation: animate-svg-fill-6 0.7s linear infinite normal 1.3s forwards;
          animation: animate-svg-fill-6 0.7s linear infinite normal 1.3s forwards;
}


        ]]>
</style>
<path
      opacity="0.4"
      class="svg-elem-1"
      d="M556.184 130.869L352.26 251.369C348.169 253.725 343.018 253.725 339.079 251.369L135.307 131.183C131.519 128.983 131.519 123.327 135.307 121.285L339.079 4.3983C343.17 2.04171 348.018 2.04171 352.108 4.3983L556.184 120.814C559.972 123.013 559.972 128.669 556.184 130.711V130.869Z"
      fill="#E81932"
    />
    <path
      class="svg-elem-4"
      d="M240.455 189.156L348.023 129.77L451.197 189.156V60.913L345.75 0L240.455 60.9771V189.156Z"
      fill="#E81932"
    />
    <path
      opacity="0.4"
      class="svg-elem-2"
      d="M366.306 548.061L363.912 311.208C363.917 306.487 366.492 302.026 370.503 299.793L576.473 183.414C580.272 181.233 585.17 184.061 585.045 188.362L584.385 423.278C584.381 427.999 581.957 432.198 577.871 434.562L375.014 553.089C371.216 555.269 366.317 552.441 366.443 548.14L366.306 548.061Z"
      fill="#E81932"
    />
    <path
      class="svg-elem-5"
      d="M473.694 245.489L471.34 368.338L368.323 427.996L479.385 492.118L584.86 431.255L584.7 309.578L473.694 245.489Z"
      fill="#E81932"
    />
    <path
      opacity="0.4"
      class="svg-elem-3"
      d="M325.207 548.061L327.601 311.208C327.597 306.487 325.021 302.026 321.011 299.793L115.041 183.414C111.242 181.233 106.344 184.061 106.469 188.362L107.128 423.278C107.133 427.999 109.557 432.198 113.643 434.562L316.5 553.089C320.298 555.269 325.196 552.441 325.071 548.14L325.207 548.061Z"
      fill="#E81932"
    />
    <path
      class="svg-elem-6"
      d="M217.819 245.489L220.173 368.338L323.19 427.996L212.129 492.118L106.653 431.255L106.814 309.578L217.819 245.489Z"
      fill="#E81932"
    />
</svg>